<svg width="20" height="20" viewBox="0 0 20 20" fill="none" xmlns="http://www.w3.org/2000/svg">
<path d="M12.5001 18.9583H7.50008C2.97508 18.9583 1.04175 17.025 1.04175 12.5V7.5C1.04175 2.975 2.97508 1.04167 7.50008 1.04167H11.6667C12.0084 1.04167 12.2917 1.325 12.2917 1.66667C12.2917 2.00833 12.0084 2.29167 11.6667 2.29167H7.50008C3.65841 2.29167 2.29175 3.65833 2.29175 7.5V12.5C2.29175 16.3417 3.65841 17.7083 7.50008 17.7083H12.5001C16.3417 17.7083 17.7084 16.3417 17.7084 12.5V8.33333C17.7084 7.99167 17.9917 7.70833 18.3334 7.70833C18.6751 7.70833 18.9584 7.99167 18.9584 8.33333V12.5C18.9584 17.025 17.0251 18.9583 12.5001 18.9583Z" fill="#78829D"/>
<path d="M18.3334 8.95833H15.0001C12.1501 8.95833 11.0417 7.85 11.0417 5V1.66667C11.0417 1.41667 11.1917 1.18333 11.4251 1.09167C11.6584 0.991667 11.9251 1.05 12.1084 1.225L18.7751 7.89167C18.9501 8.06667 19.0084 8.34167 18.9084 8.575C18.8084 8.80833 18.5834 8.95833 18.3334 8.95833ZM12.2917 3.175V5C12.2917 7.15 12.8501 7.70833 15.0001 7.70833H16.8251L12.2917 3.175Z" fill="#78829D"/>
<path d="M10.8333 11.4583H5.83325C5.49159 11.4583 5.20825 11.175 5.20825 10.8333C5.20825 10.4917 5.49159 10.2083 5.83325 10.2083H10.8333C11.1749 10.2083 11.4583 10.4917 11.4583 10.8333C11.4583 11.175 11.1749 11.4583 10.8333 11.4583Z" fill="#78829D"/>
<path d="M9.16659 14.7917H5.83325C5.49159 14.7917 5.20825 14.5083 5.20825 14.1667C5.20825 13.825 5.49159 13.5417 5.83325 13.5417H9.16659C9.50825 13.5417 9.79159 13.825 9.79159 14.1667C9.79159 14.5083 9.50825 14.7917 9.16659 14.7917Z" fill="#78829D"/>
</svg>
