<svg width="20" height="20" viewBox="0 0 20 20" fill="none" xmlns="http://www.w3.org/2000/svg">
<path d="M4.64167 18.9167C2.69167 18.9167 1.04167 17.2667 1.04167 15.3167V10.1833C1 7.75 1.9 5.45833 3.58333 3.74167C5.26667 2.03333 7.525 1.08333 9.95833 1.08333C14.925 1.08333 18.9583 5.125 18.9583 10.0833V15.2167C18.9583 17.2 17.3417 18.8167 15.3583 18.8167C13.4083 18.8167 11.7583 17.1667 11.7583 15.2167V12.875C11.7583 11.6667 12.7083 10.7167 13.9167 10.7167C15.125 10.7167 16.075 11.6667 16.075 12.875V15.4C16.075 15.7417 15.7917 16.025 15.45 16.025C15.1083 16.025 14.825 15.7417 14.825 15.4V12.875C14.825 12.3083 14.3667 11.9667 13.9167 11.9667C13.35 11.9667 13.0083 12.425 13.0083 12.875V15.2167C13.0083 16.4917 14.0833 17.5667 15.3583 17.5667C16.6333 17.5667 17.7083 16.4917 17.7083 15.2167V10.0833C17.7083 5.80833 14.2333 2.33333 9.95833 2.33333C7.86667 2.33333 5.925 3.14167 4.475 4.61667C3.025 6.09167 2.25 8.06666 2.29167 10.1667V15.3167C2.29167 16.5917 3.36667 17.6667 4.64167 17.6667C5.91667 17.6667 6.99167 16.5917 6.99167 15.3167V12.975C6.99167 12.4083 6.53334 12.0667 6.08333 12.0667C5.51667 12.0667 5.175 12.525 5.175 12.975V15.4083C5.175 15.75 4.89167 16.0333 4.55 16.0333C4.20833 16.0333 3.925 15.75 3.925 15.4083V12.975C3.925 11.7667 4.875 10.8167 6.08333 10.8167C7.29167 10.8167 8.24167 11.7667 8.24167 12.975V15.3167C8.24167 17.2667 6.59167 18.9167 4.64167 18.9167Z" fill="#78829D"/>
</svg>
