<svg width="20" height="20" viewBox="0 0 20 20" fill="none" xmlns="http://www.w3.org/2000/svg">
<path d="M10 11.8083C8.22502 11.8083 6.77502 10.3666 6.77502 8.5833C6.77502 6.79997 8.22502 5.36664 10 5.36664C11.775 5.36664 13.225 6.80831 13.225 8.59164C13.225 10.375 11.775 11.8083 10 11.8083ZM10 6.61664C8.91669 6.61664 8.02502 7.49997 8.02502 8.59164C8.02502 9.68331 8.90836 10.5666 10 10.5666C11.0917 10.5666 11.975 9.68331 11.975 8.59164C11.975 7.49997 11.0834 6.61664 10 6.61664Z" fill="#116EDB"/>
<path d="M10 18.9667C8.76669 18.9667 7.52502 18.5 6.55836 17.575C4.10002 15.2084 1.38336 11.4334 2.40836 6.94169C3.33336 2.86669 6.89169 1.04169 10 1.04169C10 1.04169 10 1.04169 10.0084 1.04169C13.1167 1.04169 16.675 2.86669 17.6 6.95002C18.6167 11.4417 15.9 15.2084 13.4417 17.575C12.475 18.5 11.2334 18.9667 10 18.9667ZM10 2.29169C7.57503 2.29169 4.45836 3.58335 3.63336 7.21669C2.73336 11.1417 5.20002 14.525 7.43336 16.6667C8.87502 18.0584 11.1334 18.0584 12.575 16.6667C14.8 14.525 17.2667 11.1417 16.3834 7.21669C15.55 3.58335 12.425 2.29169 10 2.29169Z" fill="#116EDB"/>
</svg>
