<svg width="20" height="20" viewBox="0 0 20 20" fill="none" xmlns="http://www.w3.org/2000/svg">
<path d="M7.50008 13.3333C7.50008 13.7936 7.12699 14.1667 6.66675 14.1667C6.20651 14.1667 5.83342 13.7936 5.83342 13.3333C5.83342 12.8731 6.20651 12.5 6.66675 12.5C7.12699 12.5 7.50008 12.8731 7.50008 13.3333Z" fill="#78829D"/>
<path d="M10.8334 13.3333C10.8334 13.7936 10.4603 14.1667 10.0001 14.1667C9.53985 14.1667 9.16675 13.7936 9.16675 13.3333C9.16675 12.8731 9.53985 12.5 10.0001 12.5C10.4603 12.5 10.8334 12.8731 10.8334 13.3333Z" fill="#78829D"/>
<path d="M13.3334 14.1667C13.7937 14.1667 14.1667 13.7936 14.1667 13.3333C14.1667 12.8731 13.7937 12.5 13.3334 12.5C12.8732 12.5 12.5001 12.8731 12.5001 13.3333C12.5001 13.7936 12.8732 14.1667 13.3334 14.1667Z" fill="#78829D"/>
<path fill-rule="evenodd" clip-rule="evenodd" d="M4.37508 6.66666V7.7523C4.18606 7.76559 4.00789 7.7829 3.84029 7.80543C3.0902 7.90628 2.45864 8.12203 1.95704 8.62362C1.45544 9.12522 1.2397 9.75678 1.13885 10.5069C1.04172 11.2293 1.04173 12.1479 1.04175 13.2876V13.3791C1.04173 14.5187 1.04172 15.4373 1.13885 16.1598C1.2397 16.9099 1.45544 17.5414 1.95704 18.043C2.45864 18.5446 3.0902 18.7604 3.84029 18.8612C4.56276 18.9584 5.48136 18.9583 6.62102 18.9583H13.3791C14.5188 18.9583 15.4374 18.9584 16.1599 18.8612C16.91 18.7604 17.5415 18.5446 18.0431 18.043C18.5447 17.5414 18.7605 16.9099 18.8613 16.1598C18.9584 15.4373 18.9584 14.5187 18.9584 13.3791V13.2876C18.9584 12.1479 18.9584 11.2293 18.8613 10.5069C18.7605 9.75678 18.5447 9.12522 18.0431 8.62362C17.5415 8.12203 16.91 7.90628 16.1599 7.80543C15.9923 7.7829 15.8141 7.76559 15.6251 7.7523V6.66666C15.6251 3.56006 13.1067 1.04166 10.0001 1.04166C6.89348 1.04166 4.37508 3.56006 4.37508 6.66666ZM10.0001 2.29166C7.58384 2.29166 5.62508 4.25042 5.62508 6.66666V7.7112C5.93632 7.70832 6.26802 7.70833 6.62091 7.70833H13.3791C13.732 7.70833 14.0638 7.70832 14.3751 7.7112V6.66666C14.3751 4.25042 12.4163 2.29166 10.0001 2.29166ZM4.00685 9.04429C3.39537 9.1265 3.07156 9.27687 2.84092 9.50751C2.61029 9.73814 2.45992 10.062 2.37771 10.6734C2.29308 11.3029 2.29175 12.1372 2.29175 13.3333C2.29175 14.5295 2.29308 15.3638 2.37771 15.9932C2.45992 16.6047 2.61029 16.9285 2.84092 17.1592C3.07156 17.3898 3.39537 17.5402 4.00685 17.6224C4.63631 17.707 5.47057 17.7083 6.66675 17.7083H13.3334C14.5296 17.7083 15.3639 17.707 15.9933 17.6224C16.6048 17.5402 16.9286 17.3898 17.1592 17.1592C17.3899 16.9285 17.5402 16.6047 17.6225 15.9932C17.7071 15.3638 17.7084 14.5295 17.7084 13.3333C17.7084 12.1372 17.7071 11.3029 17.6225 10.6734C17.5402 10.062 17.3899 9.73814 17.1592 9.50751C16.9286 9.27687 16.6048 9.1265 15.9933 9.04429C15.3639 8.95966 14.5296 8.95833 13.3334 8.95833H6.66675C5.47057 8.95833 4.63631 8.95966 4.00685 9.04429Z" fill="#78829D"/>
</svg>
