<svg width="20" height="20" viewBox="0 0 20 20" fill="none" xmlns="http://www.w3.org/2000/svg">
<path d="M14.5333 12.8083C14.375 12.8083 14.2167 12.75 14.0917 12.625C13.85 12.3833 13.85 11.9833 14.0917 11.7417L15.7833 10.05L14.0917 8.35833C13.85 8.11666 13.85 7.71666 14.0917 7.475C14.3333 7.23333 14.7333 7.23333 14.975 7.475L17.1083 9.60833C17.35 9.85 17.35 10.25 17.1083 10.4917L14.975 12.625C14.85 12.75 14.6917 12.8083 14.5333 12.8083Z" fill="#78829D"/>
<path d="M16.6083 10.675H8.1333C7.79163 10.675 7.5083 10.3917 7.5083 10.05C7.5083 9.70834 7.79163 9.425 8.1333 9.425H16.6083C16.95 9.425 17.2333 9.70834 17.2333 10.05C17.2333 10.3917 16.95 10.675 16.6083 10.675Z" fill="#78829D"/>
<path d="M9.79997 17.2917C5.5083 17.2917 2.5083 14.2917 2.5083 10C2.5083 5.70834 5.5083 2.70834 9.79997 2.70834C10.1416 2.70834 10.425 2.99167 10.425 3.33334C10.425 3.675 10.1416 3.95834 9.79997 3.95834C6.24163 3.95834 3.7583 6.44167 3.7583 10C3.7583 13.5583 6.24163 16.0417 9.79997 16.0417C10.1416 16.0417 10.425 16.325 10.425 16.6667C10.425 17.0083 10.1416 17.2917 9.79997 17.2917Z" fill="#78829D"/>
</svg>
