<svg width="40" height="40" viewBox="0 0 40 40" fill="none" xmlns="http://www.w3.org/2000/svg">
<path opacity="0.4" d="M33.1333 34.9C31.55 36.0667 29.4667 36.6667 26.9833 36.6667H13.0167C12.6167 36.6667 12.2167 36.65 11.8333 36.6L23.3333 25.1L33.1333 34.9Z" fill="#4B5675"/>
<path opacity="0.4" d="M36.6667 13.0167V26.9833C36.6667 29.4667 36.0667 31.55 34.9 33.1333L25.1 23.3333L36.6 11.8333C36.65 12.2167 36.6667 12.6167 36.6667 13.0167Z" fill="#4B5675"/>
<path opacity="0.4" d="M25.1 23.3333L34.9 33.1333C34.4167 33.8333 33.8333 34.4167 33.1333 34.9L23.3333 25.1L11.8333 36.6C10.7667 36.5333 9.8 36.3167 8.91667 35.9833C5.35 34.6833 3.33333 31.5167 3.33333 26.9833V13.0167C3.33333 6.95 6.94999 3.33334 13.0167 3.33334H26.9833C31.5167 3.33334 34.6833 5.35 35.9833 8.91667C36.3167 9.8 36.5333 10.7667 36.6 11.8333L25.1 23.3333Z" fill="#4B5675"/>
<path d="M25.1 23.3333L34.9 33.1333C34.4167 33.8333 33.8333 34.4167 33.1333 34.9L23.3333 25.1L11.8333 36.6C10.7667 36.5333 9.80001 36.3167 8.91667 35.9833L9.56665 35.3333L35.9833 8.91666C36.3167 9.8 36.5333 10.7667 36.6 11.8333L25.1 23.3333Z" fill="#4B5675"/>
<path d="M20.4 13.2167C19.7666 10.4667 17.3333 9.23333 15.2 9.21667C13.0667 9.21667 10.6333 10.45 9.99999 13.2C9.29999 16.25 11.1666 18.8 12.85 20.4C13.5166 21.0333 14.35 21.3333 15.2 21.3333C16.05 21.3333 16.8833 21.0167 17.55 20.4C19.2333 18.8 21.1 16.25 20.4 13.2167ZM15.25 15.8167C14.3333 15.8167 13.5833 15.0667 13.5833 14.15C13.5833 13.2333 14.3166 12.4833 15.25 12.4833H15.2667C16.1833 12.4833 16.9333 13.2333 16.9333 14.15C16.9333 15.0667 16.1666 15.8167 15.25 15.8167Z" fill="#4B5675"/>
</svg>
