<svg width="20" height="20" viewBox="0 0 20 20" fill="none" xmlns="http://www.w3.org/2000/svg">
<path d="M13.3334 18.9583H2.50002C1.70002 18.9583 1.04169 18.3 1.04169 17.5V6.66666C1.04169 2.98332 2.98335 1.04166 6.66669 1.04166H13.3334C17.0167 1.04166 18.9584 2.98332 18.9584 6.66666V13.3333C18.9584 17.0167 17.0167 18.9583 13.3334 18.9583ZM6.66669 2.29166C3.68335 2.29166 2.29169 3.68332 2.29169 6.66666V17.5C2.29169 17.6167 2.38335 17.7083 2.50002 17.7083H13.3334C16.3167 17.7083 17.7084 16.3167 17.7084 13.3333V6.66666C17.7084 3.68332 16.3167 2.29166 13.3334 2.29166H6.66669Z" fill="#99A1B7"/>
<path d="M12.9166 10.625H7.08331C6.74165 10.625 6.45831 10.3417 6.45831 10C6.45831 9.65833 6.74165 9.375 7.08331 9.375H12.9166C13.2583 9.375 13.5416 9.65833 13.5416 10C13.5416 10.3417 13.2583 10.625 12.9166 10.625Z" fill="#99A1B7"/>
<path d="M10 13.5417C9.65833 13.5417 9.375 13.2583 9.375 12.9167V7.08334C9.375 6.74168 9.65833 6.45834 10 6.45834C10.3417 6.45834 10.625 6.74168 10.625 7.08334V12.9167C10.625 13.2583 10.3417 13.5417 10 13.5417Z" fill="#99A1B7"/>
</svg>
