<svg width="24" height="24" viewBox="0 0 24 24" fill="none" xmlns="http://www.w3.org/2000/svg">
<path d="M16.9 19.01C16.59 19.01 16.28 18.92 16.01 18.74L15.05 18.11C14.78 17.93 14.65 17.59 14.74 17.28C14.81 17.05 14.84 16.78 14.84 16.48V12.41C14.84 10.78 13.82 9.76001 12.19 9.76001H5.39999C5.27999 9.76001 5.17 9.77003 5.06 9.78003C4.85 9.79003 4.65001 9.72002 4.49001 9.58002C4.33001 9.44002 4.25 9.24003 4.25 9.03003V6.26001C4.25 3.32001 6.31 1.26001 9.25 1.26001H17.75C20.69 1.26001 22.75 3.32001 22.75 6.26001V11.36C22.75 12.81 22.26 14.09 21.36 14.97C20.64 15.7 19.64 16.17 18.5 16.31V17.42C18.5 18.02 18.17 18.56 17.65 18.84C17.41 18.95 17.15 19.01 16.9 19.01ZM16.3 17.13L16.95 17.5C17.01 17.47 17.01 17.42 17.01 17.41V15.6C17.01 15.19 17.35 14.85 17.76 14.85C18.81 14.85 19.7 14.52 20.31 13.9C20.94 13.28 21.26 12.4 21.26 11.35V6.25C21.26 4.12 19.89 2.75 17.76 2.75H9.25999C7.12999 2.75 5.75999 4.12 5.75999 6.25V8.25H12.2C14.64 8.25 16.35 9.96002 16.35 12.4V16.47C16.34 16.7 16.33 16.92 16.3 17.13Z" fill="#116EDB"/>
<path d="M6.07001 22.75C5.85001 22.75 5.62 22.7 5.41 22.59C4.94 22.34 4.64999 21.86 4.64999 21.32V20.56C3.76999 20.42 2.99 20.05 2.41 19.47C1.65 18.71 1.25 17.67 1.25 16.47V12.4C1.25 10.14 2.72999 8.48002 4.92999 8.27002C5.08999 8.26002 5.23999 8.25 5.39999 8.25H12.19C14.63 8.25 16.34 9.96002 16.34 12.4V16.47C16.34 16.91 16.29 17.32 16.18 17.69C15.73 19.49 14.2 20.62 12.19 20.62H9.7L6.87 22.5C6.63 22.67 6.35001 22.75 6.07001 22.75ZM5.39999 9.75C5.27999 9.75 5.17 9.76002 5.06 9.77002C3.62 9.90002 2.75 10.89 2.75 12.4V16.47C2.75 17.27 3 17.94 3.47 18.41C3.93 18.87 4.59999 19.12 5.39999 19.12C5.80999 19.12 6.14999 19.46 6.14999 19.87V21.18L9.05 19.25C9.17 19.17 9.32 19.12 9.47 19.12H12.19C13.51 19.12 14.44 18.46 14.73 17.3C14.8 17.05 14.84 16.77 14.84 16.47V12.4C14.84 10.77 13.82 9.75 12.19 9.75H5.39999Z" fill="#116EDB"/>
<path d="M17.2304 3.97607C17.2304 3.97607 17.5589 5.46832 18.2219 6.09892C18.8848 6.72952 20.3917 6.98293 20.3917 6.98293C20.3917 6.98293 18.8994 7.31139 18.2688 7.97436C17.6382 8.63733 17.3848 10.1441 17.3848 10.1441C17.3848 10.1441 17.0563 8.65189 16.3934 8.02129C15.7304 7.39068 14.2236 7.13727 14.2236 7.13727C14.2236 7.13727 15.7158 6.80882 16.3464 6.14585C16.977 5.48288 17.2304 3.97607 17.2304 3.97607Z" stroke="#116EDB" stroke-linejoin="round"/>
<path d="M11.7923 4.07192C11.7923 4.07192 11.6475 4.81503 11.3266 5.13534C11.0058 5.45565 10.2624 5.59921 10.2624 5.59921C10.2624 5.59921 11.0055 5.74405 11.3258 6.0649C11.6461 6.38575 11.7897 7.12912 11.7897 7.12912C11.7897 7.12912 11.9345 6.386 12.2554 6.06569C12.5762 5.74539 13.3196 5.60182 13.3196 5.60182C13.3196 5.60182 12.5765 5.45699 12.2562 5.13613C11.9359 4.81528 11.7923 4.07192 11.7923 4.07192Z" stroke="#116EDB" stroke-linejoin="round"/>
</svg>
