<svg width="89" height="80" viewBox="0 0 89 80" fill="none" xmlns="http://www.w3.org/2000/svg">
<path opacity="0.4" d="M80.1667 17.6042V40.1291C80.1667 45.7382 78.3117 50.4641 74.9992 53.7325C71.7309 57.045 67.005 58.8999 61.3958 58.8999V66.8941C61.3958 69.8974 58.0391 71.7083 55.5658 70.03L51.2817 67.2033C51.6792 65.8341 51.8558 64.3324 51.8558 62.7424V44.7668C51.8558 35.7568 45.8492 29.75 36.8392 29.75H6.84998C6.23165 29.75 5.65751 29.7943 5.08334 29.8384V17.6042C5.08334 6.34168 12.5917 -1.16666 23.8542 -1.16666H61.3958C72.6583 -1.16666 80.1667 6.34168 80.1667 17.6042Z" fill="white"/>
<path d="M51.8558 44.7668V62.7424C51.8558 64.3324 51.6792 65.8341 51.2817 67.2032C49.6475 73.6957 44.2592 77.7591 36.8392 77.7591H24.8258L11.4875 86.6367C9.5 88.0059 6.84998 86.5484 6.84998 84.1634V77.7591C2.34498 77.7591 -1.40915 76.2575 -4.01498 73.6517C-6.66498 71.0017 -8.16666 67.2474 -8.16666 62.7424V44.7668C-8.16666 36.3751 -2.95499 30.5893 5.08334 29.8384C5.65751 29.7943 6.23165 29.75 6.84998 29.75H36.8392C45.8492 29.75 51.8558 35.7568 51.8558 44.7668Z" fill="white"/>
<path d="M59.8844 9.87052C60.0058 9.40033 60.8321 9.37969 60.9768 9.84323C61.6564 12.0192 62.9131 15.2743 64.7539 17.0253C66.5946 18.7763 69.9084 19.869 72.1156 20.439C72.5858 20.5604 72.6064 21.3867 72.1429 21.5314C69.9669 22.211 66.7119 23.4677 64.9608 25.3085C63.2098 27.1492 62.1172 30.463 61.5471 32.6702C61.4257 33.1404 60.5995 33.161 60.4547 32.6975C59.7752 30.5215 58.5184 27.2664 56.6776 25.5154C54.8369 23.7644 51.5231 22.6718 49.3159 22.1017C48.8457 21.9803 48.8251 21.1541 49.2886 21.0093C51.4646 20.3298 54.7197 19.073 56.4707 17.2322C58.2217 15.3915 59.3144 12.0777 59.8844 9.87052Z" fill="white"/>
<path d="M40.675 8.21427C40.5262 7.75202 39.6548 7.75124 39.5052 8.21322C39.0548 9.6036 38.3372 11.3232 37.3245 12.3341C36.3118 13.345 34.5909 14.0595 33.1997 14.5074C32.7375 14.6562 32.7367 15.5276 33.1987 15.6772C34.5891 16.1276 36.3087 16.8453 37.3196 17.8579C38.3304 18.8706 39.045 20.5915 39.4929 21.9827C39.6417 22.4449 40.5131 22.4457 40.6627 21.9837C41.1131 20.5934 41.8307 18.8737 42.8434 17.8629C43.8561 16.852 45.577 16.1374 46.9682 15.6895C47.4304 15.5407 47.4312 14.6694 46.9692 14.5197C45.5788 14.0694 43.8592 13.3517 42.8483 12.339C41.8375 11.3263 41.1229 9.60544 40.675 8.21427Z" fill="white"/>
</svg>
