<svg width="20" height="17" viewBox="0 0 20 17" fill="none" xmlns="http://www.w3.org/2000/svg">
<path d="M19.6422 5.03295C20.0269 5.2976 20.1152 5.81141 19.8394 6.18059C19.5636 6.54981 19.0282 6.63447 18.6434 6.36986L19.6422 5.03295ZM13.7223 1.97288L13.2229 2.64134L13.2219 2.64069L13.7223 1.97288ZM6.27889 1.97288L6.77923 2.64069L6.7782 2.64138L6.27889 1.97288ZM1.35652 6.36997C0.971722 6.63447 0.436296 6.5497 0.160528 6.18053C-0.115242 5.81131 -0.0268993 5.29751 0.357899 5.03291L1.35652 6.36997ZM16.1348 7.79701C16.1348 7.34278 16.5186 6.97454 16.992 6.97454C17.4653 6.97454 17.8491 7.34278 17.8491 7.79701H16.1348ZM16.992 11.9872L16.1348 11.9934V11.9872H16.992ZM12.6891 16.1775L12.6954 17H12.6891V16.1775ZM7.31088 16.1775V17L7.30459 16.9999L7.31088 16.1775ZM3.00805 11.9872H3.86519V11.9934L3.00805 11.9872ZM2.15091 7.79701C2.15091 7.34278 2.53468 6.97454 3.00805 6.97454C3.48142 6.97454 3.86519 7.34278 3.86519 7.79701H2.15091ZM18.6434 6.36986L13.2229 2.64134L14.2216 1.30442L19.6422 5.03295L18.6434 6.36986ZM13.2219 2.64069C11.2973 1.31302 8.7039 1.31302 6.77923 2.64069L5.77855 1.30507C8.30116 -0.435023 11.7 -0.435023 14.2226 1.30507L13.2219 2.64069ZM6.7782 2.64138L1.35652 6.36997L0.357899 5.03291L5.77958 1.30438L6.7782 2.64138ZM17.8491 7.79701V11.9872H16.1348V7.79701H17.8491ZM17.8491 11.9812C17.8593 13.3025 17.322 14.5736 16.3555 15.5147L15.1344 14.3602C15.7818 13.7298 16.1417 12.8784 16.1348 11.9934L17.8491 11.9812ZM16.3555 15.5147C15.389 16.456 14.0724 16.9903 12.6954 17L12.6828 15.3551C13.6052 15.3485 14.487 14.9907 15.1344 14.3602L16.3555 15.5147ZM12.6891 17H7.31088V15.3551H12.6891V17ZM7.30459 16.9999C5.92757 16.9902 4.61101 16.456 3.6445 15.5147L4.86552 14.3602C5.51295 14.9907 6.39489 15.3485 7.31716 15.3551L7.30459 16.9999ZM3.6445 15.5147C2.678 14.5736 2.14074 13.3025 2.15091 11.9812L3.86519 11.9934C3.85833 12.8784 4.21821 13.7298 4.86552 14.3602L3.6445 15.5147ZM2.15091 11.9872V7.79701H3.86519V11.9872H2.15091Z" fill="#116EDB"/>
</svg>
